<svg width="22" height="39" viewBox="0 0 22 39" fill="none" xmlns="http://www.w3.org/2000/svg">
<path d="M13.6605 0.120331C10.6917 0.549831 8.35581 2.16234 7.12006 4.63385C6.23092 6.42721 6.05007 7.5198 6.05007 11.2346V13.8644H3.49567C2.07908 13.8644 0.850855 13.8945 0.752899 13.9322C0.647407 13.9774 0.48917 14.0829 0.406284 14.1733C0.248047 14.3391 0.248047 14.3918 0.248047 17.8127C0.248047 20.9926 0.263117 21.3015 0.383679 21.4447C0.639872 21.7687 0.737828 21.7762 3.44293 21.7762H6.05007V29.9141V38.052L6.26859 38.2931L6.48711 38.5418L9.99847 38.5644C13.0954 38.5795 13.54 38.5719 13.7434 38.4665C14.2106 38.2253 14.188 38.6021 14.188 29.8011V21.7762H17.202C19.3721 21.7762 20.2613 21.7536 20.4044 21.6858C20.8189 21.4974 20.8189 21.4673 20.8189 17.7901V14.3918L20.6004 14.1507L20.3818 13.902L17.2774 13.8794L14.1804 13.8568L14.2031 11.423L14.2257 8.99668L14.4517 8.55211C14.7004 8.06986 15.1148 7.74585 15.6724 7.59515C15.8306 7.54994 16.9458 7.50473 18.1439 7.48966C19.3495 7.46705 20.412 7.43691 20.5024 7.41431C20.6004 7.3917 20.7661 7.28621 20.8641 7.18072L21.0449 6.98481V3.72964C21.0449 0.53476 21.0449 0.47448 20.8867 0.308708C20.8038 0.218288 20.6456 0.112797 20.5401 0.067585C20.2387 -0.0454407 14.5045 -0.000228882 13.6605 0.120331Z" fill="#FE001A"/>
</svg>
