<svg width="39" height="39" viewBox="0 0 39 39" fill="none" xmlns="http://www.w3.org/2000/svg">
<path d="M8.13053 0.5765C6.88352 0.638847 5.63849 0.992168 4.55774 1.58796C2.71395 2.60537 1.32046 4.27696 0.663302 6.2613C0.426765 6.97585 0.291177 7.71021 0.252579 8.48216C0.238724 8.76126 0.238724 30.3742 0.252579 30.6533C0.326806 32.1586 0.786024 33.5709 1.60351 34.8149C2.9485 36.8606 5.10504 38.2056 7.52187 38.5045C7.76138 38.5342 7.90587 38.5471 8.16023 38.5599C8.42546 38.5738 30.0631 38.5738 30.3293 38.5599C31.2814 38.5114 32.1474 38.3244 33.0114 37.981C35.3303 37.0595 37.1345 35.1108 37.8718 32.7306C38.0816 32.0547 38.1994 31.3807 38.237 30.6523C38.2508 30.387 38.2508 8.74839 38.237 8.48315C38.1776 7.31829 37.9025 6.24546 37.4007 5.22212C36.4219 3.22789 34.684 1.70277 32.5858 0.997116C31.9237 0.775425 31.3398 0.657654 30.5223 0.583427C30.4244 0.57452 27.7581 0.571548 19.3388 0.57056C13.2581 0.569569 8.21466 0.571548 8.13053 0.5765ZM30.2502 3.10912C31.0528 3.15663 31.7792 3.34863 32.4869 3.69898C33.8833 4.38979 34.9344 5.60018 35.4253 7.08571C35.5549 7.47664 35.642 7.89726 35.6905 8.36439C35.7073 8.53066 35.7083 9.00967 35.7083 19.5677C35.7083 30.1258 35.7073 30.6048 35.6905 30.771C35.6569 31.0986 35.6143 31.349 35.545 31.6321C35.0858 33.5006 33.7171 35.0247 31.903 35.6878C31.4467 35.8541 31.0162 35.9511 30.458 36.0134C30.3135 36.0293 29.6474 36.0313 19.3784 36.0342C11.7785 36.0362 8.39478 36.0342 8.26414 36.0263C7.80295 36.0006 7.37045 35.9283 6.95775 35.8076C6.88154 35.7858 6.80336 35.763 6.78455 35.7571C6.70142 35.7324 6.41144 35.6225 6.27486 35.5641C4.82694 34.9367 3.70265 33.7579 3.14446 32.2803C2.9683 31.8142 2.8624 31.353 2.79906 30.7809C2.78322 30.6374 2.78124 29.9496 2.77828 19.7013C2.7763 12.0371 2.77828 8.71771 2.78619 8.58212C2.8436 7.52909 3.17019 6.54534 3.74916 5.67738C4.59931 4.40364 5.92154 3.51588 7.41796 3.21403C7.67033 3.16356 8.03651 3.11704 8.27899 3.10615C8.46505 3.09724 30.1047 3.10022 30.2502 3.10912Z" fill="#FE001A"/>
<path d="M29.1374 6.90955C28.3456 6.99169 27.6519 7.42221 27.2303 8.09322C26.7483 8.85924 26.7196 9.8519 27.156 10.6446C27.354 11.0049 27.638 11.3137 27.9884 11.5482C28.2239 11.7056 28.5822 11.856 28.8553 11.9105C29.0671 11.953 29.1473 11.9609 29.3799 11.9609C29.6134 11.9609 29.7094 11.951 29.9064 11.9105C30.7773 11.7284 31.5047 11.0771 31.7848 10.226C31.8759 9.95087 31.9085 9.74007 31.9085 9.43227C31.9085 9.13438 31.8769 8.92456 31.7937 8.66526C31.671 8.27928 31.4671 7.94476 31.1781 7.65182C30.7833 7.25198 30.2944 7.00555 29.7312 6.92241C29.6095 6.9046 29.2581 6.89668 29.1374 6.90955Z" fill="#FE001A"/>
<path d="M18.7641 9.44567C16.8777 9.54365 15.1349 10.1216 13.587 11.1628C12.3835 11.9733 11.3642 13.0353 10.6001 14.2774C10.2795 14.7999 9.97661 15.4165 9.75987 15.9925C8.88795 18.3034 8.8929 20.8657 9.77273 23.1826C9.98057 23.7299 10.2874 24.3524 10.5991 24.8601C11.7818 26.7861 13.5801 28.2716 15.6832 29.0604C17.2657 29.6532 18.966 29.8393 20.6643 29.6047C22.902 29.2959 25.0031 28.2162 26.5718 26.5693C27.8069 25.2718 28.663 23.7141 29.0866 21.99C29.5062 20.2858 29.4716 18.4588 28.9876 16.7743C28.1276 13.7776 25.9146 11.3271 23.0188 10.1632C22.0449 9.77128 21.0344 9.53969 19.9567 9.46052C19.7053 9.44171 19.0076 9.43379 18.7641 9.44567ZM19.8033 11.9892C20.2843 12.0288 20.695 12.0961 21.1196 12.2039C22.4398 12.5385 23.6482 13.2263 24.6181 14.1972C25.8394 15.4204 26.6005 16.996 26.7955 18.7072C26.8301 19.016 26.839 19.1951 26.839 19.5702C26.839 19.9453 26.8301 20.1245 26.7955 20.4332C26.5589 22.5096 25.4802 24.391 23.8026 25.6509C22.2755 26.798 20.3822 27.3235 18.4731 27.1305C17.2152 27.0038 16.0157 26.5674 14.9746 25.8577C12.8853 24.4336 11.6433 22.09 11.6433 19.5702C11.6433 17.5493 12.44 15.6283 13.8711 14.1962C15.1359 12.9304 16.7857 12.1604 18.5761 11.9991C18.9056 11.9694 19.5044 11.9644 19.8033 11.9892Z" fill="#FE001A"/>
</svg>
