<svg width="607" height="606" viewBox="0 0 607 606" fill="#fe001a" xmlns="http://www.w3.org/2000/svg">
<path d="M294.51 2.52386C300.165 -0.322043 306.835 -0.322047 312.49 2.52385L340.587 16.6625C344.39 18.5761 348.704 19.2263 352.902 18.5187L383.918 13.2899C390.161 12.2375 396.534 14.2032 401.1 18.5897L423.781 40.382C426.851 43.3314 430.782 45.2244 435.002 45.7855L466.181 49.9313C472.457 50.7658 477.967 54.5226 481.037 60.0599L496.288 87.5695C498.352 91.2928 501.55 94.2603 505.417 96.0403L533.989 109.192C539.74 111.84 543.898 117.054 545.2 123.25L551.664 154.032C552.539 158.198 554.72 161.977 557.891 164.818L581.317 185.807C586.033 190.032 588.469 196.24 587.886 202.544L584.99 233.865C584.598 238.104 585.569 242.357 587.761 246.006L603.96 272.968C607.221 278.395 607.719 285.046 605.304 290.898L593.304 319.973C591.68 323.909 591.354 328.259 592.373 332.392L599.905 362.931C601.422 369.078 599.938 375.58 595.904 380.461L575.868 404.707C573.156 407.989 571.562 412.05 571.318 416.3L569.514 447.702C569.151 454.023 565.816 459.799 560.524 463.274L534.231 480.537C530.672 482.874 527.952 486.285 526.466 490.274L515.486 519.749C513.276 525.682 508.387 530.218 502.306 531.979L472.092 540.726C468.003 541.909 464.398 544.367 461.802 547.741L442.622 572.67C438.762 577.688 432.753 580.582 426.423 580.472L394.974 579.924C390.717 579.85 386.548 581.136 383.073 583.595L357.397 601.763C352.229 605.42 345.634 606.414 339.618 604.443L309.727 594.65C305.681 593.325 301.319 593.325 297.273 594.65L267.382 604.443C261.366 606.414 254.771 605.42 249.603 601.763L223.927 583.595C220.452 581.136 216.283 579.85 212.026 579.924L180.577 580.472C174.247 580.582 168.238 577.688 164.378 572.67L145.198 547.741C142.602 544.367 138.997 541.909 134.908 540.726L104.694 531.979C98.6127 530.218 93.724 525.682 91.5139 519.749L80.5339 490.274C79.0479 486.285 76.3277 482.874 72.7691 480.537L46.476 463.274C41.1836 459.799 37.8491 454.023 37.4859 447.702L35.6818 416.3C35.4376 412.05 33.8437 407.989 31.1319 404.707L11.0955 380.461C7.06249 375.58 5.57848 369.078 7.09455 362.931L14.6265 332.392C15.6459 328.259 15.3199 323.909 13.6958 319.973L1.6964 290.898C-0.718906 285.046 -0.220521 278.395 3.04007 272.968L19.2389 246.006C21.4313 242.357 22.4022 238.104 22.0102 233.865L19.1139 202.544C18.5309 196.24 20.9674 190.032 25.6828 185.807L49.1092 164.818C52.2798 161.977 54.4612 158.198 55.3361 154.032L61.8003 123.25C63.1015 117.054 67.2596 111.84 73.0108 109.192L101.583 96.0403C105.45 94.2603 108.648 91.2928 110.712 87.5695L125.963 60.0599C129.033 54.5226 134.543 50.7658 140.819 49.9313L171.998 45.7855C176.218 45.2244 180.149 43.3315 183.219 40.382L205.9 18.5897C210.466 14.2032 216.839 12.2375 223.082 13.2899L254.098 18.5187C258.296 19.2263 262.61 18.5761 266.413 16.6625L294.51 2.52386Z" />
</svg>
