<svg width="48" height="39" viewBox="0 0 48 39" fill="none" xmlns="http://www.w3.org/2000/svg">
<path d="M31.9236 0.590313C27.882 1.00383 24.5407 3.88938 23.5507 7.81928C23.3333 8.67951 23.2639 9.35864 23.285 10.3758C23.3001 11.1274 23.3545 11.6556 23.4722 12.1506L23.5114 12.3287H23.3846C23.3152 12.3287 23.0738 12.3136 22.8504 12.2985C17.1155 11.8548 11.8032 9.69368 7.38433 6.00525C6.21321 5.0273 4.88815 3.70526 3.97057 2.59752C3.8106 2.40736 3.72306 2.32285 3.69892 2.34096C3.64459 2.38624 3.21598 3.2676 3.0711 3.64187C2.80548 4.31799 2.60627 5.10578 2.49157 5.92979C2.41611 6.46706 2.41611 7.78306 2.49157 8.32938C2.75719 10.2702 3.50876 11.9605 4.74327 13.4002C5.21111 13.9435 5.90835 14.5774 6.48788 14.9818C6.5905 15.0543 6.67502 15.1177 6.67502 15.1177C6.67502 15.1328 6.21924 15.0965 5.88119 15.0573C4.78251 14.9335 3.65062 14.5955 2.70588 14.1126C2.52478 14.019 2.36178 13.9405 2.34669 13.9315C2.31651 13.9194 2.34971 14.6378 2.40404 15.1388C2.5942 16.8412 3.28842 18.5495 4.34183 19.9108C5.64878 21.6011 7.49903 22.8205 9.55151 23.3457C9.79902 23.4091 9.98917 23.4664 9.97408 23.4755C9.92881 23.5027 9.25873 23.6445 8.95388 23.6898C7.96084 23.8377 6.59352 23.8196 5.82082 23.6476C5.68801 23.6204 5.685 23.5902 5.85101 24.0399C6.65691 26.2132 8.26569 28.0574 10.3272 29.1651C11.0033 29.5273 11.9994 29.9016 12.7117 30.0585C13.1886 30.1642 13.8376 30.2547 14.2813 30.2789L14.6556 30.297L14.5499 30.3875C14.3598 30.5475 13.4573 31.1814 13.0438 31.441C10.3152 33.1614 7.25152 34.1454 3.95849 34.3657C3.12543 34.4201 1.26914 34.3778 0.593026 34.2873C0.478328 34.2722 0.47531 34.2752 0.532659 34.3205C0.635283 34.3989 1.71887 35.0388 2.16257 35.2803C5.28657 36.9857 8.809 38.0753 12.3586 38.4375C13.4482 38.5462 13.9523 38.5703 15.2321 38.5703C16.7684 38.5703 17.7765 38.5069 19.1107 38.3288C25.8989 37.4264 31.6882 34.245 36.0135 29.0353C40.1969 24.0007 42.5663 17.3965 42.4969 10.9523L42.4878 10.0106L42.8199 9.7631C44.2626 8.67649 45.5303 7.40878 46.623 5.95695C46.9218 5.55853 47.2417 5.10276 47.2417 5.07257C47.2417 5.06352 47.1633 5.0937 47.0697 5.13596C45.7748 5.70643 44.1027 6.1954 42.5935 6.43687C41.6548 6.59081 41.7121 6.60288 42.1287 6.3252C42.684 5.95394 43.1096 5.60079 43.6348 5.07257C44.486 4.21838 45.0565 3.39437 45.5696 2.29267C45.7175 1.97574 45.9861 1.28152 45.968 1.26643C45.962 1.26341 45.8292 1.33283 45.6722 1.42338C45.2466 1.66485 44.2687 2.15382 43.7857 2.36209C42.681 2.83899 41.528 3.21327 40.3146 3.4819L39.892 3.57849L39.6053 3.3008C38.1022 1.84595 36.3183 0.964588 34.2477 0.647663C33.9157 0.596352 33.6531 0.581257 33.0102 0.572205C32.5635 0.566166 32.0745 0.575222 31.9236 0.590313Z" fill="#FE001A"/>
</svg>
