<svg width="53" height="39" viewBox="0 0 53 39" fill="none" xmlns="http://www.w3.org/2000/svg">
<path d="M8.42684 0.664837C6.0216 0.980278 3.45865 2.46548 2.02602 4.35812C1.31628 5.30445 0.803686 6.26391 0.369955 7.48624L0.0545139 8.34056L0.0150838 19.2101C-0.0243463 31.4597 -0.0637764 30.9472 0.97455 33.0501C2.28889 35.7313 4.4444 37.4926 7.37537 38.2812L8.46627 38.5703H26.2755C42.731 38.5703 44.1505 38.5572 44.9654 38.3469C48.4878 37.44 51.1822 34.8245 52.1943 31.3283L52.4966 30.29V19.5781V8.8663L52.1943 7.84112C51.1822 4.34498 48.6455 1.86088 45.0706 0.835701C44.2557 0.599121 43.3225 0.585976 26.7356 0.572834C17.1278 0.559689 8.87371 0.599121 8.42684 0.664837ZM27.8396 15.5431C32.0586 18.0141 35.5153 20.1039 35.5153 20.1696C35.5153 20.2485 34.0433 21.1685 32.2426 22.22C30.442 23.2714 27.0247 25.2692 24.6458 26.6624C22.2668 28.0556 20.2427 29.2254 20.1507 29.2648C19.993 29.3174 19.9667 27.8716 19.9667 20.1827C19.9667 15.1488 20.0061 11.035 20.0719 11.035C20.1244 11.035 23.6206 13.059 27.8396 15.5431Z" fill="#FE001A"/>
</svg>
