<?xml version="1.0" standalone="no"?>
<!DOCTYPE svg PUBLIC "-//W3C//DTD SVG 20010904//EN"
 "http://www.w3.org/TR/2001/REC-SVG-20010904/DTD/svg10.dtd">
<svg version="1.0" xmlns="http://www.w3.org/2000/svg"
 width="1444.000000pt" height="1444.000000pt" viewBox="0 0 1444.000000 1444.000000"
 preserveAspectRatio="xMidYMid meet">
<metadata>
Created by potrace 1.14, written by Peter Selinger 2001-2017
</metadata>
<g transform="translate(0.000000,1444.000000) scale(0.100000,-0.100000)"
fill="#000000" stroke="none">
<path d="M6898 14435 c-1 -1 -61 -6 -133 -9 -71 -4 -137 -9 -145 -11 -8 -2
-57 -6 -107 -10 -51 -3 -103 -8 -115 -10 -13 -3 -43 -7 -68 -10 -56 -6 -104
-13 -153 -21 -20 -3 -47 -7 -60 -9 -55 -7 -119 -17 -212 -35 -55 -10 -114 -21
-131 -24 -106 -19 -450 -106 -619 -156 -187 -56 -517 -170 -580 -200 -11 -5
-45 -19 -75 -31 -62 -23 -67 -25 -245 -105 -563 -251 -1119 -597 -1615 -1004
-285 -233 -598 -535 -827 -796 -29 -32 -64 -72 -78 -89 -15 -16 -52 -61 -83
-100 -31 -38 -59 -72 -62 -75 -5 -4 -55 -68 -82 -105 -4 -5 -20 -25 -34 -43
-24 -30 -99 -132 -132 -179 -7 -10 -28 -40 -48 -68 -34 -48 -96 -142 -189
-285 -54 -84 -175 -288 -175 -296 0 -3 -9 -18 -20 -34 -11 -15 -70 -128 -133
-251 -170 -337 -306 -665 -422 -1021 -31 -95 -58 -180 -61 -188 -2 -8 -19 -73
-39 -145 -19 -71 -37 -139 -40 -150 -2 -11 -13 -56 -24 -100 -11 -44 -22 -91
-24 -105 -3 -14 -14 -70 -25 -125 -25 -119 -50 -257 -56 -305 -2 -19 -7 -51
-10 -70 -7 -42 -13 -87 -21 -155 -3 -27 -7 -63 -10 -80 -2 -16 -7 -61 -10
-100 -3 -38 -8 -83 -10 -100 -26 -202 -26 -962 0 -1225 2 -19 6 -66 10 -105 3
-38 8 -79 10 -90 2 -11 7 -49 10 -85 3 -36 8 -74 10 -85 2 -11 6 -38 9 -61 30
-254 139 -745 231 -1044 14 -47 27 -89 29 -95 15 -55 95 -284 140 -405 19 -51
100 -247 125 -305 12 -27 26 -59 31 -70 5 -11 51 -108 104 -216 412 -846 995
-1610 1716 -2249 248 -220 613 -495 865 -653 50 -31 95 -60 100 -64 6 -5 69
-43 141 -85 587 -345 1214 -605 1864 -771 118 -31 341 -82 404 -92 11 -2 73
-14 136 -25 122 -22 148 -27 220 -35 25 -3 56 -7 70 -10 14 -3 52 -7 85 -10
33 -3 70 -8 82 -11 13 -2 55 -7 95 -10 40 -2 89 -7 108 -9 254 -31 980 -26
1305 9 28 3 75 8 105 11 91 10 134 15 160 20 14 2 48 7 75 10 28 3 86 12 130
20 44 8 96 16 115 20 173 29 559 120 715 167 39 12 75 23 80 24 17 4 256 81
330 107 71 25 330 126 395 154 19 9 53 23 75 33 187 82 574 274 627 311 14 11
29 19 32 19 4 0 35 17 69 38 35 21 70 41 77 45 8 4 27 15 42 25 15 9 57 36 95
58 151 92 516 349 649 457 360 293 684 600 931 882 29 33 64 74 78 90 177 201
400 502 605 815 140 214 344 587 477 875 129 277 288 707 369 990 24 87 122
479 128 510 2 17 11 62 19 100 9 39 18 88 21 110 4 22 15 92 26 155 19 117 25
162 35 260 3 30 8 64 10 75 2 11 7 54 10 95 4 41 8 91 10 110 27 235 27 964 0
1215 -2 22 -7 67 -10 100 -3 33 -8 74 -10 90 -2 17 -7 57 -10 90 -3 33 -8 69
-10 80 -2 11 -7 40 -10 65 -3 25 -7 56 -10 70 -14 79 -38 219 -42 245 -2 17
-18 93 -35 170 -193 894 -546 1725 -1058 2490 -124 186 -281 397 -415 560 -33
39 -69 83 -80 97 -130 164 -497 538 -726 740 -59 52 -81 71 -134 116 -63 54
-195 159 -300 237 -66 50 -121 93 -123 98 -2 4 -9 7 -15 7 -6 0 -20 9 -31 19
-30 27 -353 241 -365 241 -5 0 -11 4 -13 8 -3 7 -192 120 -313 187 -165 92
-356 186 -610 300 -220 99 -565 222 -925 329 -48 15 -358 92 -400 100 -14 3
-92 18 -175 35 -82 16 -174 32 -204 36 -30 4 -63 9 -75 11 -12 2 -32 6 -46 8
-14 3 -49 8 -79 11 -30 4 -61 8 -70 10 -9 1 -50 6 -91 10 -41 4 -82 9 -90 10
-8 2 -62 6 -120 10 -58 4 -118 10 -135 12 -37 4 -782 13 -787 8z"/>
</g>
</svg>
